0
SECTION
2
HEADER
9
$INSUNITS
70
4
9
$ACADVER
1
AC1014
9
$HANDSEED
5
FFFF
0
ENDSEC
0
SECTION
2
TABLES
0
TABLE
2
VPORT
5
8
100
AcDbSymbolTable
0
ENDTAB
0
TABLE
2
LTYPE
5
5
100
AcDbSymbolTable
0
LTYPE
5
14
100
AcDbSymbolTableRecord
100
AcDbLinetypeTableRecord
2
BYBLOCK
70
0
0
LTYPE
5
15
100
AcDbSymbolTableRecord
100
AcDbLinetypeTableRecord
2
BYLAYER
70
0
0
ENDTAB
0
TABLE
2
LAYER
5
2
100
AcDbSymbolTable
70
2
0
LAYER
5
50
100
AcDbSymbolTableRecord
100
AcDbLayerTableRecord
2
0
70
0
6
CONTINUOUS
0
ENDTAB
0
TABLE
2
STYLE
5
3
100
AcDbSymbolTable
70
1
0
STYLE
5
11
100
AcDbSymbolTableRecord
100
AcDbTextStyleTableRecord
2
STANDARD
70
0
0
ENDTAB
0
TABLE
2
VIEW
5
6
100
AcDbSymbolTable
70
0
0
ENDTAB
0
TABLE
2
UCS
5
7
100
AcDbSymbolTable
70
0
0
ENDTAB
0
TABLE
2
APPID
5
9
100
AcDbSymbolTable
70
2
0
APPID
5
12
100
AcDbSymbolTableRecord
100
AcDbRegAppTableRecord
2
ACAD
70
0
0
ENDTAB
0
TABLE
2
DIMSTYLE
5
A
100
AcDbSymbolTable
70
1
0
ENDTAB
0
TABLE
2
BLOCK_RECORD
5
1
100
AcDbSymbolTable
70
1
0
BLOCK_RECORD
5
1F
100
AcDbSymbolTableRecord
100
AcDbBlockTableRecord
2
*MODEL_SPACE
0
BLOCK_RECORD
5
1B
100
AcDbSymbolTableRecord
100
AcDbBlockTableRecord
2
*PAPER_SPACE
0
ENDTAB
0
ENDSEC
0
SECTION
2
BLOCKS
0
BLOCK
5
20
100
AcDbEntity
100
AcDbBlockBegin
2
*MODEL_SPACE
0
ENDBLK
5
21
100
AcDbEntity
100
AcDbBlockEnd
0
BLOCK
5
1C
100
AcDbEntity
100
AcDbBlockBegin
2
*PAPER_SPACE
0
ENDBLK
5
1D
100
AcDbEntity
100
AcDbBlockEnd
0
ENDSEC
0
SECTION
2
ENTITIES
0
LWPOLYLINE
5
100
100
AcDbEntity
8
0
100
AcDbPolyline
90
27
70
1
43
0.0
10
46.446042294262362
20
14.132382423942314
10
49.01736592034765
20
15.99488606419003
42
0.38582085320402659
10
51.383485611317347
20
15.496805370770437
10
55.863300643606728
20
18.115416593136796
42
-1.1670416749679227
10
58.672768481320944
20
0
10
-85.000000000000014
20
-5.5511151231257827e-16
42
-1.3140898103155214
10
-73.76594085966579
20
14.060655455370652
10
-70.009072343148304
20
8.8740214172581382
42
0.39179045803487944
10
-67.211223782217488
20
8.3152979103051816
10
-65.552466845943002
20
5.6080575393072145
10
-58.57175804485108
20
9.8852171398989697
10
-60.230514981125566
20
12.592457510896949
10
-51.703773655147678
20
17.816888806249668
10
-50.045016718873192
20
15.109648435251692
10
0.92627333117675903
20
46.340337009170838
10
-0.73248360509774013
20
49.047577380168818
10
7.7942577208801467
20
54.272008675521526
10
9.4530146571546414
20
51.564768304523554
10
16.2955966733644
20
55.757296054555212
10
19.411830425763327
20
51.455105552054036
10
21.983154051848551
20
53.317609192301731
10
24.916230650663831
20
49.268280647285636
10
22.34490702457861
20
47.405777007037926
10
40.301704681186052
20
22.61509361426571
10
42.873028307271277
20
24.477597254513412
10
45.806104906086553
20
20.428268709497313
10
43.234781280001329
20
18.565765069249611
0
LWPOLYLINE
5
101
100
AcDbEntity
8
0
100
AcDbPolyline
90
4
70
1
43
0.0
10
35.000000521540642
20
25.00000037252903
10
-30.000000447034836
20
25.00000037252903
10
-30.000000447034836
20
5.000000074505806
10
35.000000521540642
20
5.000000074505806
0
LWPOLYLINE
5
102
100
AcDbEntity
8
0
100
AcDbPolyline
90
4
70
1
43
0.0
10
23.84669632613031
20
17.231470633978656
10
-8.6264482051196172
20
17.231470633978656
10
-8.626448205119619
20
22.231470633978645
10
23.84669632613031
20
22.231470633978645
0
LWPOLYLINE
5
103
100
AcDbEntity
8
0
100
AcDbPolyline
90
4
70
1
43
0.0
10
14.351141597286848
20
9.9339550287010905
10
-8.5272763714631434
20
9.9339550287010976
10
-8.5272763714631452
20
14.933955028701094
10
14.351141597286844
20
14.933955028701087
0
ENDSEC
0
SECTION
2
OBJECTS
0
DICTIONARY
5
C
100
AcDbDictionary
3
ACAD_GROUP
350
D
3
ACAD_MLINESTYLE
350
17
0
DICTIONARY
5
D
100
AcDbDictionary
0
DICTIONARY
5
1A
330
C
100
AcDbDictionary
0
DICTIONARY
5
17
100
AcDbDictionary
0
ENDSEC
0
EOF
